<?xml version="1.0" standalone="no"?><!DOCTYPE svg PUBLIC "-//W3C//DTD SVG 1.1//EN" "http://www.w3.org/Graphics/SVG/1.1/DTD/svg11.dtd"><svg t="1539057937049" class="icon" style="" viewBox="0 0 1107 1024" version="1.1" xmlns="http://www.w3.org/2000/svg" p-id="5285" xmlns:xlink="http://www.w3.org/1999/xlink" width="138.375" height="128"><defs><style type="text/css"></style></defs><path d="M282.442448 841.617297C141.822339 787.677405 39.560718 667.094486 8.868394 518.282378-39.702417 282.291892 116.250015 53.912216 353.984069 7.749189c209.643243-38.496865 416.712649 74.392216 493.429622 269.395027 5.092324 12.813838-2.573838 28.229189-15.36 33.349189-12.786162 5.12-28.118486-2.573838-33.210811-15.387675C732.365907 123.156757 548.294988 23.136865 364.224069 59.032216 154.608502 100.130595 16.562231 300.253405 57.46688 508.070054a383.391135 383.391135 0 0 0 240.307892 284.782703c15.332324 5.147676 22.998486 20.563027 17.906162 33.376865-5.12 12.841514-20.48 20.535351-33.238486 15.387675z" fill="#ffffff" p-id="5286"></path><path d="M208.299312 484.960865c-25.572324-125.730595 58.783135-248.887351 186.617082-274.542703 127.833946-25.655351 250.547892 59.032216 276.120216 184.735135 2.546162 12.841514-5.12 23.109189-17.906162 25.655352-12.786162 2.573838-22.998486-5.12-25.572325-17.961514-20.452324-102.621405-120.140108-169.319784-222.401729-148.812108-102.261622 20.535351-171.312432 118.036757-150.832433 220.658162 15.332324 79.539892 79.235459 138.544432 158.498595 151.385946 12.786162 2.573838 20.452324 12.841514 17.878486 25.655351-2.546162 12.841514-12.758486 20.535351-25.544648 17.961514-99.715459-10.24-176.404757-84.687568-196.857082-184.735135" fill="#ffffff" p-id="5287"></path><path d="M1028.938448 846.737297c-5.092324 7.693838-12.786162 15.387676-17.878487 23.081514-48.570811 64.152216-61.356973 79.539892-145.740108 94.927567-92.021622 15.415351-171.284757-41.043027-171.284757-41.043027l-2.546162-2.573837-222.429405-112.889082c-5.12-5.12-12.786162-17.961514-12.786163-28.229189 0 0 0-5.12 10.24-12.813838 30.664649-20.535351 99.687784 7.693838 122.713946 20.507676a27.122162 27.122162 0 0 0 30.664649-5.12c7.666162-7.693838 10.24-20.507676 2.573838-30.775351-86.929297-123.156757-178.978595-266.848865-184.070919-289.930379-5.12-12.841514 2.546162-38.469189 15.332324-46.190702 10.24-5.12 22.998486 5.12 30.664649 12.841513 56.264649 56.458378 107.381622 148.812108 107.381622 148.812108 7.666162 10.24 17.906162 15.387676 30.692324 12.813838l33.210811-5.12c10.24-2.573838 15.36-10.267676 17.906162-20.535351a39.852973 39.852973 0 0 1 15.332324-20.535352c12.786162-7.693838 30.692324-5.12 40.904649 5.147676 7.693838 5.12 20.48 7.693838 28.146162 5.12a24.631351 24.631351 0 0 0 17.878487-23.081513 14.114595 14.114595 0 0 1 7.666162-12.841514c7.666162-5.12 17.906162-5.12 23.026162 2.573838 5.092324 7.693838 15.332324 10.24 25.544648 7.693838l33.238487-10.24a24.631351 24.631351 0 0 0 17.906162-23.109189 14.114595 14.114595 0 0 1 7.666162-12.841514c10.24-5.12 20.48-2.546162 25.572325 5.147676l40.904648 66.698378 69.023135 97.501405c7.666162 15.387676 53.690811 128.276757 2.546163 195.002811m53.69081-215.538162l-2.546162-2.546162-74.143135-102.649081-40.904649-64.124541a72.150486 72.150486 0 0 0-94.595459-23.109189c-15.332324 7.693838-25.572324 17.989189-30.664649 33.376865l-5.12 2.546162c-20.48-15.387676-51.144649-15.387676-74.17081-2.546162-7.638486 5.12-15.304649 10.24-20.424649 17.961514-22.998486-10.267676-51.144649-7.721514-74.143135 5.12a109.678703 109.678703 0 0 0-35.784649 41.043027c-20.48-30.775351-61.356973-94.927568-107.381622-141.118271-43.450811-43.616865-79.263135-28.229189-92.049297-20.507675-35.784649 20.507676-51.116973 69.272216-40.904648 102.621405 7.693838 33.349189 89.503135 159.079784 145.740108 241.165838-33.238486-7.693838-69.023135-7.693838-97.141622 10.267676-25.572324 15.387676-30.692324 35.923027-33.238486 51.310702-2.573838 38.496865 28.118486 69.272216 30.664648 71.846054 2.573838 2.573838 5.12 5.147676 7.666162 5.147676l225.003244 112.889081c10.212324 10.24 79.235459 53.884541 166.164756 53.884541 12.786162 0 25.572324 0 40.904649-2.573838 104.807784-17.989189 127.833946-48.764541 178.950919-115.462919 5.12-7.693838 10.24-15.387676 17.906162-23.081514 74.143135-97.501405 5.092324-243.739676 10.24-251.461189" fill="#ffffff" p-id="5288"></path></svg>