<?xml version="1.0" standalone="no"?><!DOCTYPE svg PUBLIC "-//W3C//DTD SVG 1.1//EN" "http://www.w3.org/Graphics/SVG/1.1/DTD/svg11.dtd"><svg t="1557196728908" class="icon" style="" viewBox="0 0 1025 1024" version="1.1" xmlns="http://www.w3.org/2000/svg" p-id="3119" xmlns:xlink="http://www.w3.org/1999/xlink" width="64.0625" height="64"><defs><style type="text/css"></style></defs><path d="M730.20048 882.82c-4.9-160.8-115.1-295.9-263.2-339.2 2.6-1.3 9.9-5.7 11-6.3 7.7-4.3 25.6-16.5 27.4-17.8 6.4-4.9 23.6-20.4 26.1-22.9 4.7-4.8 29.4-35.6 31.8-39.4 4.9-7.7 9.2-15.7 13.1-24 0.5-1.2 1.2-2.1 1.7-3.3 13.7-29.5 21.4-62.3 21.4-96.9 0-129-105-234-234-234l-0.2 0-0.2 0c-129 0-234 104.9-234 234 0 92.6 54.3 172.6 132.5 210.5-148.1 43.3-258.2 178.3-263.1 339.1-0.1 0.8-0.5 1.4-0.5 2.2 0 0.5 0.2 0.8 0.3 1.2 0.2 4.5 1.3 8.7 3.2 12.7 5.2 10.7 15.9 18.2 28.6 18.2 13 0 24-7.8 29.1-18.8 1.4-3 1.8-6.2 2.3-9.6 0.2-1.3 0.7-2.4 0.7-3.7s-0.6-2.5-0.8-3.8c0-4.8 0.1-9.5-0.1-14.2-0.1-2.8 0.6-5.1 1.2-7.4L63.70048 859.42c9.5-83.9 53.7-157.5 117.6-206.5 1.2-0.7 2.4-1.1 3.6-1.9 0.2 0.2 0.4 0.4 0.6 0.6 37.7-28.5 82-48.6 130.2-57 0.8-0.1 1.7-0.2 2.5-0.4 7-1.1 14.1-2.1 21.3-2.7 6.3-0.5 12.7-0.8 19.1-0.9 2.3-0.1 4.4-0.3 6.7-0.3 10 0 20 0.7 29.8 1.7 0-0.1 0-0.2 0-0.2C536.80048 605.82 651.00048 718.32 667.10048 859.62l-0.8 0c0.6 2.3 1.3 4.6 1.2 7.4-0.2 4.8-0.1 9.5-0.1 14.2-0.2 1.3-0.8 2.5-0.8 3.8 0 1.3 0.5 2.4 0.7 3.7 0.4 3.3 0.9 6.6 2.3 9.6 5 11 16 18.8 29 18.8 12.7 0 23.5-7.5 28.7-18.2 1.8-3.9 3-8.1 3.1-12.7 0-0.4 0.2-0.8 0.2-1.2C730.70048 884.22 730.30048 883.62 730.20048 882.82M193.20048 333.22c0-94.9 77.2-172.2 172.1-172.3 94.9 0.1 172.1 77.3 172.1 172.3 0 95-77.2 172.3-172.1 172.3C270.40048 505.52 193.20048 428.22 193.20048 333.22M1023.50048 890.52C1018.70048 729.72 908.50048 594.62 760.40048 551.32c78.2-37.9 132.4-117.8 132.4-210.5 0-128.7-104.6-233.5-233.2-234l0 0.6c-15.9 1.3-28.5 14.2-28.5 30.4 0 16.2 12.6 29.1 28.5 30.4l0 0.3c0.8 0 1.5 0.1 2.3 0.2 0.1 0 0.1 0 0.1 0 0 0 0 0 0.1 0 93.3 1.9 168.7 78.3 168.7 172.1 0 87.6-67.9 168.8-152.8 181 0 0.1 0 0.1 0 0.2-7.7 1.3-14.9 4.4-20.3 9.5-7.6 7.2-12.5 17.2-12.5 28.5 0 12.1 5.8 22.5 14.4 29.7 6.7 5.7 15.2 9.5 24.6 9.5-0.1 0-0.1 0.1-0.2 0.1 0.1 0 0.3 0 0.5 0 7.2 0.7 14.3 1.6 21.3 2.8 0.8 0.1 1.7 0.2 2.5 0.3 48.2 8.4 92.5 28.5 130.2 57 0.2-0.2 0.5-0.4 0.6-0.6 1.1 0.8 2.4 1.3 3.6 1.9 63.9 49 108.1 122.6 117.6 206.5l-0.8 0c0.5 2.4 1.3 4.6 1.2 7.4-0.2 4.8-0.1 9.5-0.1 14.2-0.2 1.3-0.8 2.5-0.8 3.9 0 1.3 0.5 2.4 0.8 3.6 0.4 3.4 0.9 6.6 2.2 9.6 5 11 16.1 18.9 29.1 18.9 12.7 0 23.4-7.6 28.6-18.3 1.9-3.9 3-8.1 3.2-12.7 0-0.4 0.2-0.8 0.2-1.2C1024.00048 891.92 1023.60048 891.22 1023.50048 890.52M684.00048 599.32 684.00048 599.32l-0.1 0L684.00048 599.32z" p-id="3120" fill="#ffffff"></path></svg>