<?xml version="1.0" encoding="utf-8"?>
<!-- Svg Vector Icons : http://www.sfont.cn -->
<!DOCTYPE svg PUBLIC "-//W3C//DTD SVG 1.1//EN" "http://www.w3.org/Graphics/SVG/1.1/DTD/svg11.dtd">
<svg version="1.1" xmlns="http://www.w3.org/2000/svg" xmlns:xlink="http://www.w3.org/1999/xlink" x="0px" y="0px" viewBox="0 0 1000 1000" enable-background="new 0 0 1000 1000" xml:space="preserve">
<metadata> Svg Vector Icons : http://www.sfont.cn </metadata>
<g><path d="M139.9,578c34.3,0,61.9-29.7,61.9-66c0-35.6-27.6-65.5-61.9-65.5c-34.3,0-62,29.9-62,65.5C77.9,548.3,105.3,578,139.9,578L139.9,578z M883.7,618.1l-57.9-61.4l-55.7,59.8l-55.3-58.9l-55.4,58.9l-64.5-57.7l-62.5,61.8h-91.9C401.1,694.4,326.4,745,240.7,745C113.2,745,10,650.8,10,516.1c0-134.7,103.2-261,230.7-261c84.7,0,158,49.5,198.3,121.8h464.4l77.8,83.2c12.3,12.9,11.3,42.1,0.5,54l-96.5,103.6l0,0"/></g>
</svg>