<?xml version="1.0" standalone="no"?><!DOCTYPE svg PUBLIC "-//W3C//DTD SVG 1.1//EN" "http://www.w3.org/Graphics/SVG/1.1/DTD/svg11.dtd"><svg t="1539057853118" class="icon" style="" viewBox="0 0 1081 1024" version="1.1" xmlns="http://www.w3.org/2000/svg" p-id="3538" xmlns:xlink="http://www.w3.org/1999/xlink" width="135.125" height="128"><defs><style type="text/css"></style></defs><path d="M849.360147 403.175349H661.741738a38.968651 38.968651 0 1 0 0 77.937302h187.732186a38.968651 38.968651 0 1 0 0-77.937302h-0.113777z m38.854874-123.391245a38.513542 38.513542 0 0 0-38.342877-38.399766H568.216976a38.513542 38.513542 0 0 0-38.399765 38.399766v1.023993c0 21.162537 17.180339 38.342877 38.399765 38.456654h281.768945a38.513542 38.513542 0 0 0 38.342877-38.456654v-0.967105H888.158132zM939.357819 0.006258H335.201511a105.69891 105.69891 0 0 0-106.666014 102.058043H228.251054v33.564239a38.854874 38.854874 0 1 0 77.709747 0v-31.288698a28.216716 28.216716 0 0 1 29.126933-26.396283h604.326974a28.216716 28.216716 0 0 1 29.183821 26.396283v815.099019a28.273605 28.273605 0 0 1-29.183821 26.453172H335.201511a28.273605 28.273605 0 0 1-29.126933-26.453172v-33.678016a38.911762 38.911762 0 1 0-77.709747 0v33.564239a105.812687 105.812687 0 0 0 106.83668 104.390473h604.326974a105.812687 105.812687 0 0 0 106.893569-104.333584V104.339842A105.812687 105.812687 0 0 0 939.471596 0.006258H939.357819zM305.903913 273.355698l347.475209 345.14278-63.828943 64.568494-65.023602 65.763154L177.051367 403.744235l128.852546-130.388537z m164.123441 530.940756a38.456654 38.456654 0 0 0 0.625774 53.645894c15.758126 15.359906 39.537536 15.359906 54.385445 0.853328l237.680326-240.524752a38.627319 38.627319 0 0 0-0.170666-54.157891 38.513542 38.513542 0 0 0-54.328557-0.853328l-347.702764-345.313446a38.456654 38.456654 0 0 0-0.625774-53.645894 38.513542 38.513542 0 0 0-54.328557-0.853328l-119.465936 120.88815-118.897051 119.864156a38.456654 38.456654 0 0 0 0.625774 53.702783c15.701237 15.359906 39.480648 15.359906 54.328556 0.79644l146.601771 145.634665-255.145107 259.75308a38.911762 38.911762 0 1 0 55.068108 54.783665l255.372661-259.525525 145.975997 144.952003z" p-id="3539" fill="#ffffff"></path></svg>