<?xml version="1.0" standalone="no"?><!DOCTYPE svg PUBLIC "-//W3C//DTD SVG 1.1//EN" "http://www.w3.org/Graphics/SVG/1.1/DTD/svg11.dtd"><svg t="1578626828148" class="icon" viewBox="0 0 1024 1024" version="1.1" xmlns="http://www.w3.org/2000/svg" p-id="1258" xmlns:xlink="http://www.w3.org/1999/xlink" width="32" height="32"><defs><style type="text/css"></style></defs><path d="M56.888889 699.050667a113.550222 113.550222 0 1 0 227.043555 0 113.550222 113.550222 0 0 0-227.043555 0z m113.550222 56.604444a56.604444 56.604444 0 1 1 0-113.208889 56.604444 56.604444 0 0 1 0 113.208889z m569.628445-56.604444a113.550222 113.550222 0 1 0 227.043555 0 113.550222 113.550222 0 0 0-227.043555 0z m113.493333 56.604444a56.604444 56.604444 0 1 1 0-113.208889 56.604444 56.604444 0 0 1 0 113.208889z m-228.124445-585.102222a113.550222 113.550222 0 1 0-227.100444 0 113.550222 113.550222 0 0 0 227.043556 0z m-61.269333-21.674667a56.604444 56.604444 0 1 1-104.675555 43.292445 56.604444 56.604444 0 0 1 104.675555-43.292445z m326.883556 415.288889c17.976889 0 26.965333-8.817778 26.965333-26.396444a408.462222 408.462222 0 0 0-235.121778-368.981334c-16.099556-1.024-26.908444 5.518222-32.426666 19.626667-5.518222 14.108444-2.730667 24.746667 8.362666 31.914667a351.573333 351.573333 0 0 1 202.296889 317.44c1.934222 17.635556 11.946667 26.396444 29.923556 26.396444zM363.349333 220.330667c11.946667-12.629333 14.620444-25.486222 7.964445-38.627556-6.656-13.084444-17.294222-17.408-31.971556-12.913778A408.519111 408.519111 0 0 0 104.106667 537.713778c5.745778 17.635556 15.758222 26.453333 29.980444 26.453333s23.267556-8.817778 26.908445-26.453333a351.573333 351.573333 0 0 1 202.296888-317.44zM288.426667 807.822222c-15.246222-10.126222-27.306667-8.533333-36.181334 4.664889-8.874667 13.255111-8.874667 26.339556 0 39.253333a406.869333 406.869333 0 0 0 519.395556-1.479111c8.135111-12.231111 8.135111-24.860444 0-37.774222-8.135111-12.913778-20.309333-14.848-36.465778-5.859555a350.435556 350.435556 0 0 1-224.142222 81.123555A350.378667 350.378667 0 0 1 288.426667 807.822222z" fill="#ffffff" p-id="1259"></path></svg>