<?xml version="1.0" standalone="no"?><!DOCTYPE svg PUBLIC "-//W3C//DTD SVG 1.1//EN" "http://www.w3.org/Graphics/SVG/1.1/DTD/svg11.dtd"><svg t="1569308530704" class="icon" viewBox="0 0 1024 1024" version="1.1" xmlns="http://www.w3.org/2000/svg" p-id="3499" xmlns:xlink="http://www.w3.org/1999/xlink" width="32" height="32"><defs><style type="text/css"></style></defs><path d="M376.806 687.785a48.246 48.246 0 0 0-2.923 6.01c9.103-6.353 18.033-16.322 30.06-34.354-17.695 15.98-24.561 24.048-27.137 28.344zM813.64 307.569L647.772 143.83l0.266 163.738zM502.01 438.4c0.344-9.615-1.545-26.107-6.184-28.334-3.262 8.069-2.75 37.611 3.266 54.098 2.233-7.9 2.402-12.882 2.919-25.764z" fill="#ffffff" p-id="3500"></path><path d="M616.018 338.836l0.02-210.411H197.627V895.57h628.808V338.836H616.018z m58.772 272.512c-1.372 8.935-3.947 13.748-9.446 17.521-4.634 3.267-10.988 4.987-19.062 4.987-23.88 0-58.562-14.428-82.094-26.967-31.954 4.982-69.903 13.737-113.362 26.102-15.283 26.793-27.827 45.69-37.442 56.51-14.428 16.317-27.484 24.56-38.99 25.251h-1.545c-11.51 0-22.84-8.248-23.875-17.172v-0.175c-0.686-7.562 0.855-17.346 13.225-32.112 21.985-25.933 66.985-47.232 66.985-47.232 4.47-7.731 4.127-7.045 9.277-16.323a806.518 806.518 0 0 0 44.662-92.574c-0.86-2.402-29.89-94.46-3.266-113.7a20.797 20.797 0 0 1 12.021-3.779c5.668 0 11.684 2.238 15.289 5.842 9.098 8.934 12.702 24.387 12.365 47.401-0.518 36.413-9.278 58.737-9.278 58.737s14.428 41.22 65.782 78.837c18.719-2.744 35.041-4.295 48.61-4.295 23.357 0 38.123 4.121 45.337 12.713 4.126 4.976 6.185 11.504 4.807 20.428z" fill="#ffffff" p-id="3501"></path><path d="M497.377 540.59c-1.034 3.093-14.945 36.757-33.838 68.87 17.516-6.012 45.517-13.907 74.88-20.092-14.945-13.225-30.566-31.605-41.042-48.778z m121.938 61.143c-2.058 0-4.29 0-6.349-0.169 15.458 6.523 27.991 9.959 37.617 9.959 5.668 0 8.93-1.199 10.65-2.233l-4.127-2.063c-5.668-2.401-16.835-5.494-37.79-5.494z" fill="#ffffff" p-id="3502"></path></svg>