<?xml version="1.0" standalone="no"?><!DOCTYPE svg PUBLIC "-//W3C//DTD SVG 1.1//EN" "http://www.w3.org/Graphics/SVG/1.1/DTD/svg11.dtd"><svg t="1557195041608" class="icon" style="" viewBox="0 0 1024 1024" version="1.1" xmlns="http://www.w3.org/2000/svg" p-id="542" xmlns:xlink="http://www.w3.org/1999/xlink" width="64" height="64"><defs><style type="text/css"></style></defs><path d="M191.268571 545.938286a186.148571 186.148571 0 0 1-142.116571-64.877715A199.753143 199.753143 0 0 1 0 349.622857c0-24.868571 5.851429-49.737143 16.969143-71.826286l89.014857-178.102857A180.662857 180.662857 0 0 1 267.264 0h488.228571a180.370286 180.370286 0 0 1 161.28 99.693714l89.234286 178.614857c10.898286 21.796571 16.822857 46.08 17.042286 70.290286v6.144a191.195429 191.195429 0 0 1-191.049143 191.049143 191.268571 191.268571 0 0 1-160.329143-87.113143 190.829714 190.829714 0 0 1-320.585143 0c-8.777143 13.458286-19.163429 25.892571-31.232 36.937143a187.465143 187.465143 0 0 1-128.585143 50.322286zM267.264 61.44c-45.348571 0-86.089143 25.234286-106.349714 65.682286L71.899429 305.225143a98.816 98.816 0 0 0-10.459429 44.251428c0 69.558857 51.785143 128.585143 117.906286 134.363429A129.901714 129.901714 0 0 0 320.585143 354.742857a30.72 30.72 0 0 1 61.44 0c0 71.460571 58.148571 129.609143 129.609143 129.609143 71.387429 0 129.536-58.148571 129.536-129.609143a30.72 30.72 0 0 1 61.44 0c0 71.460571 58.221714 129.609143 129.609143 129.609143 71.460571 0 129.462857-58.002286 129.609142-129.462857v-5.778286a98.523429 98.523429 0 0 0-10.459428-43.373714l-89.234286-178.614857A118.052571 118.052571 0 0 0 755.785143 61.44h-488.594286z m491.154286 894.317714h-489.325715c-87.917714 0-159.378286-78.189714-159.378285-174.299428V631.881143c0-16.969143 12.580571-30.72 28.086857-30.72 15.506286 0 28.086857 13.750857 28.086857 30.72v149.577143c0 62.171429 46.299429 112.859429 103.131429 112.859428h489.472c56.905143 0 103.131429-50.688 103.131428-112.859428V631.881143c0-16.969143 12.653714-30.72 28.16-30.72 15.506286 0 28.086857 13.750857 28.086857 30.72v149.577143c-0.146286 96.036571-71.606857 174.299429-159.451428 174.299428z" fill="#1E98D2" p-id="543"></path></svg>