<?xml version="1.0" standalone="no"?><!DOCTYPE svg PUBLIC "-//W3C//DTD SVG 1.1//EN" "http://www.w3.org/Graphics/SVG/1.1/DTD/svg11.dtd"><svg t="1533871913092" class="icon" style="" viewBox="0 0 1024 1024" version="1.1" xmlns="http://www.w3.org/2000/svg" p-id="7743" xmlns:xlink="http://www.w3.org/1999/xlink" width="200" height="200"><defs><style type="text/css"></style></defs><path d="M796.444444 353.28v455.111111a113.777778 113.777778 0 0 1-113.777777 113.777778H341.333333a113.777778 113.777778 0 0 1-113.777777-113.777778v-455.111111h568.888888m0-56.888889H227.555556a56.888889 56.888889 0 0 0-56.888889 56.888889v455.111111a170.666667 170.666667 0 0 0 170.666666 170.666667h341.333334a170.666667 170.666667 0 0 0 170.666666-170.666667v-455.111111a56.888889 56.888889 0 0 0-56.888889-56.888889z" fill="#fff" p-id="7744"></path><path d="M711.111111 124.586667v170.666666h-398.222222v-170.666666h398.222222m0-56.888889h-398.222222a56.888889 56.888889 0 0 0-56.888889 56.888889v170.666666a56.888889 56.888889 0 0 0 56.888889 56.888889h398.222222a56.888889 56.888889 0 0 0 56.888889-56.888889v-170.666666a56.888889 56.888889 0 0 0-56.888889-56.888889z" fill="#fff" p-id="7745"></path><path d="M652.515556 181.475556h-113.777778v56.888888h113.777778v-56.888888z m-167.822223 0h-113.777777v56.888888h113.777777v-56.888888zM633.173333 771.413333h-455.111111v56.888889h455.111111v-56.888889z" fill="#fff" p-id="7746"></path></svg>
