<?xml version="1.0" standalone="no"?><!DOCTYPE svg PUBLIC "-//W3C//DTD SVG 1.1//EN" "http://www.w3.org/Graphics/SVG/1.1/DTD/svg11.dtd"><svg t="1569055858630" class="icon" viewBox="0 0 1024 1024" version="1.1" xmlns="http://www.w3.org/2000/svg" p-id="1137" xmlns:xlink="http://www.w3.org/1999/xlink" width="32" height="32"><defs><style type="text/css"></style></defs><path d="M952.32 588.288c-11.264 0-20.48 9.216-20.48 20.48v233.472c0 48.64-39.424 88.064-88.064 88.064H180.224c-48.64 0-88.064-39.424-88.064-88.064v-233.472c0-11.264-9.216-20.48-20.48-20.48s-20.48 9.216-20.48 20.48v233.472c0 71.168 57.856 129.024 129.024 129.024h663.552c71.168 0 129.024-57.856 129.024-129.024v-233.472c0-11.264-9.216-20.48-20.48-20.48z" fill="#262435" p-id="1138"></path><path d="M701.44 884.736c100.352 0 182.272-81.92 182.272-182.272s-81.92-182.272-182.272-182.272-182.272 81.92-182.272 182.272 81.92 182.272 182.272 182.272z m0-323.072c77.824 0 141.312 63.488 141.312 141.312s-63.488 141.312-141.312 141.312c-77.824 0-141.312-63.488-141.312-141.312s63.488-141.312 141.312-141.312z" fill="#262435" p-id="1139"></path><path d="M691.712 794.112c0.512 0 0.512 0.512 0 0 0.512 0.512 1.024 0.512 1.024 1.024l0.512 0.512s0.512 0 0.512 0.512c0 0 0.512 0 0.512 0.512 0 0 0.512 0 0.512 0.512 0 0 0.512 0 0.512 0.512 0 0 0.512 0 0.512 0.512H704.512s0.512 0 0.512-0.512c0 0 0.512 0 0.512-0.512 0 0 0.512 0 0.512-0.512 0 0 0.512 0 0.512-0.512 0 0 0.512 0 0.512-0.512l0.512-0.512 0.512-0.512 0.512-0.512 66.56-66.56c5.12-5.12 5.12-13.824 0-18.944s-13.824-5.12-18.944 0l-43.52 43.52v-132.096c0-7.168-6.144-13.312-13.312-13.312-7.168 0-13.312 6.144-13.312 13.312V752.64l-43.52-43.52c-5.12-5.12-13.824-5.12-18.944 0s-5.12 13.824 0 18.944l68.096 66.048z" fill="#262435" p-id="1140"></path><path d="M500.736 842.24h0.512c10.752 0 19.968-8.704 20.48-19.968 0.512-11.264-8.704-20.992-19.968-20.992-191.488-6.656-341.504-161.792-341.504-353.792 0-195.072 158.72-353.792 353.792-353.792 195.072 0 353.792 158.72 353.792 353.792 0 31.744-4.096 62.976-12.288 93.184-3.072 10.752 3.584 22.016 14.336 25.088 10.752 3.072 22.016-3.584 25.088-14.336 9.216-33.792 13.824-68.608 13.824-103.936 0-217.6-177.152-394.752-394.752-394.752-217.6 0-394.752 177.152-394.752 394.752 0 102.912 39.424 200.704 111.104 274.432 72.192 74.24 167.936 116.736 270.336 120.32z" fill="#262435" p-id="1141"></path><path d="M685.568 437.248c0-7.168-4.096-13.824-10.24-17.92L420.864 272.384c-6.144-3.584-14.336-3.584-20.48 0-6.144 3.584-10.24 10.24-10.24 17.92v293.888c0 7.168 4.096 13.824 10.24 17.92 3.072 2.048 6.656 2.56 10.24 2.56s7.168-1.024 10.24-2.56l254.464-146.944c6.144-4.096 10.24-10.752 10.24-17.92z m-254.464 111.104V325.632l193.024 111.616-193.024 111.104z" fill="#262435" p-id="1142"></path></svg>