<?xml version="1.0" standalone="no"?><!DOCTYPE svg PUBLIC "-//W3C//DTD SVG 1.1//EN" "http://www.w3.org/Graphics/SVG/1.1/DTD/svg11.dtd"><svg t="1539056175752" class="icon" style="" viewBox="0 0 1024 1024" version="1.1" xmlns="http://www.w3.org/2000/svg" p-id="2561" xmlns:xlink="http://www.w3.org/1999/xlink" width="128" height="128"><defs><style type="text/css"></style></defs><path d="M511.662 249.912m-151.537 0a151.537 151.537 0 1 0 303.074 0 151.537 151.537 0 1 0-303.074 0Z" fill="#ffffff" p-id="2562"></path><path d="M796.695 599.89c7.216-147.929-140.713-171.381-140.713-171.381H369.145C193.996 459.091 223.02 599.89 223.02 599.89h573.675zM812.931 635.969H123.8v292.25h97.422V713.541h45.457v214.678h84.789V713.541h51.774v214.678h84.789V713.541h51.775v214.678h84.787V713.541h51.775v214.678h84.789V713.541h51.774v214.678h84.789v-292.25z" fill="#ffffff" p-id="2563"></path><path d="M804.362 454.216s19.393-1.353 24.805 20.295l0.902 125.379h25.707V470.903s1.353-26.609-29.315-39.237c0 0 11.275-24.354-70.356-45.1 0 0-23.001-3.157-25.707 28.864 0 0-11.726 27.511 73.964 38.786z" fill="#ffffff" p-id="2564"></path></svg>